<?xml version="1.0" encoding="utf-8"?>
<!DOCTYPE svg PUBLIC "-//W3C//DTD SVG 1.1//EN" "http://www.w3.org/Graphics/SVG/1.1/DTD/svg11.dtd">
<svg version="1.1" id="Layer_2" xmlns="http://www.w3.org/2000/svg" xmlns:xlink="http://www.w3.org/1999/xlink" x="0px" y="0px"
	 width="48px" height="48px" viewBox="-23.5 24.5 48 48" enable-background="new -23.5 24.5 48 48" xml:space="preserve">
<g>
	<g>
		<path fill="#FFFFFF" d="M-20.5,39.15C-4.276,40.258,8.764,53.303,9.847,69.5H3.435C2.355,56.702-7.703,46.645-20.5,45.564V39.15
			 M-20.478,38.149h-0.067c-0.239,0-0.478,0.095-0.65,0.258c-0.201,0.181-0.306,0.431-0.306,0.698v6.495
			c0,0.497,0.382,0.909,0.88,0.957C-8.28,47.582,1.417,57.279,2.442,69.621C2.489,70.117,2.899,70.5,3.397,70.5h6.496
			c0.258,0,0.516-0.105,0.697-0.307c0.182-0.191,0.268-0.449,0.258-0.719C9.74,52.727-3.729,39.27-20.478,38.149L-20.478,38.149z"/>
	</g>
	<g>
		<path fill="#FFFFFF" d="M-20.5,27.501C-9.54,28.044,0.787,32.63,8.583,40.416c7.78,7.789,12.366,18.122,12.906,29.084h-6.277
			C14.093,50.249-1.25,34.907-20.5,33.787V27.501 M-20.497,26.5h-0.048c-0.248,0-0.478,0.096-0.66,0.268
			c-0.191,0.172-0.296,0.431-0.296,0.689v6.379c0,0.506,0.392,0.918,0.9,0.947C-1.824,35.854,13.145,50.824,14.215,69.6
			c0.029,0.506,0.44,0.9,0.947,0.9h6.38c0.259,0,0.517-0.107,0.688-0.297c0.183-0.191,0.277-0.451,0.269-0.709
			c-0.555-11.229-5.241-21.808-13.209-29.785C1.313,31.741-9.266,27.045-20.497,26.5L-20.497,26.5z"/>
	</g>
	<g>
		<path fill="#FFFFFF" d="M-20.5,50.83c9.796,1.032,17.637,8.872,18.67,18.668h-6.587c-0.95-6.173-5.911-11.134-12.084-12.083
			L-20.5,50.83L-20.5,50.83 M-20.448,49.83h-0.096c-0.239,0-0.469,0.086-0.641,0.238c-0.2,0.182-0.315,0.439-0.315,0.719v6.666
			c0,0.467,0.345,0.869,0.813,0.945c5.768,0.871,10.417,5.52,11.288,11.287c0.076,0.467,0.478,0.812,0.947,0.812h6.667
			c0.277,0,0.535-0.115,0.717-0.316c0.181-0.199,0.267-0.467,0.239-0.736C-1.892,59.145-10.146,50.891-20.448,49.83L-20.448,49.83z"
			/>
	</g>
</g>
</svg>
