<?xml version="1.0" encoding="utf-8"?>
<!DOCTYPE svg PUBLIC "-//W3C//DTD SVG 1.1//EN" "http://www.w3.org/Graphics/SVG/1.1/DTD/svg11.dtd">
<svg version="1.1" id="Layer_2" xmlns="http://www.w3.org/2000/svg" xmlns:xlink="http://www.w3.org/1999/xlink" x="0px" y="0px"
	 width="48px" height="48px" viewBox="0 0 48 48" enable-background="new 0 0 48 48" xml:space="preserve">
<path fill="none" stroke="#FFFFFF" stroke-linecap="round" stroke-linejoin="round" stroke-miterlimit="10" d="M24,2.755
	c-11.818,0-21.428,9.609-21.428,21.428c0,0.032,0,0.064,0.017,0.097v14.044c0,1.548,1.096,3.369,2.999,4.997
	c1.725,1.468,3.741,2.435,5.127,2.435h4.482c0.774,0,1.871-0.517,2.66-1.24c0.629-0.581,0.983-1.21,0.983-1.775V26.908
	c0-1.501-2.337-3.016-3.644-3.016h-4.482c-1.177,0-2.805,0.677-4.353,1.838v-1.548c0-9.739,7.9-17.655,17.639-17.655
	s17.655,7.917,17.655,17.655c0,0.032,0,0.064,0.016,0.097v1.451c-1.563-1.145-3.176-1.838-4.369-1.838h-4.482
	c-1.306,0-3.644,1.515-3.644,3.016v15.831c0,0.565,0.354,1.194,0.983,1.775c0.789,0.724,1.887,1.24,2.66,1.24h4.482
	c1.387,0,3.402-0.967,5.126-2.435c1.904-1.628,3-3.449,3-4.997V24.183C45.428,12.364,35.818,2.755,24,2.755z M7.071,31.438
	c0.048-0.113,0.194-0.402,0.516-0.79c0.275-0.323,0.597-0.644,1-0.982c1-0.839,1.918-1.227,2.209-1.291h3.563v12.883h-3.563
	c-0.291-0.049-1.209-0.435-2.209-1.29c-1.016-0.838-1.419-1.532-1.516-1.757V31.438z M40.945,38.194
	c-0.097,0.24-0.499,0.935-1.499,1.772c-1.016,0.838-1.936,1.241-2.225,1.29h-3.563V28.374h3.563
	c0.289,0.064,1.209,0.452,2.225,1.291c0.387,0.339,0.708,0.659,0.983,0.982c0.321,0.388,0.468,0.677,0.516,0.79V38.194z"/>
</svg>
