<?xml version="1.0" encoding="utf-8"?>
<!DOCTYPE svg PUBLIC "-//W3C//DTD SVG 1.1//EN" "http://www.w3.org/Graphics/SVG/1.1/DTD/svg11.dtd">
<svg version="1.1" id="Layer_1" xmlns="http://www.w3.org/2000/svg" xmlns:xlink="http://www.w3.org/1999/xlink" x="0px" y="0px"
	 width="48px" height="48px" viewBox="0 0 48 48" enable-background="new 0 0 48 48" xml:space="preserve">
<g>
	<g>
		<path fill="#FFFFFF" d="M9.845,11.106c0.088,1.278,0.342,2.539,0.757,3.765c0.138,0.406,0.519,0.679,0.947,0.679h0.07
			c0.29,0,0.566-0.126,0.756-0.345c0.898-1.037,1.921-1.952,3.056-2.734c-0.008,0.186-0.012,0.373-0.012,0.56
			c0,0.948,0.118,1.903,0.35,2.84c0.055,0.221,0.183,0.416,0.363,0.554c0.13,0.099,0.242,0.198,0.341,0.302
			c0.787,0.931,1.73,1.745,2.838,2.441c1.365,0.782,2.501,1.382,3.256,1.768c-0.404,0.534-0.867,0.955-1.169,0.955
			c-6.493,0-7.898,4.301-7.955,4.484c-0.045,0.145-0.056,0.298-0.033,0.447c0.025,0.165,0.604,3.751,3.504,6.271
			c-0.647,0.961-0.896,2.016-0.896,2.796v7.362C10.923,41.136,3.77,36.02,3.77,23.977C3.753,18.936,5.994,14.249,9.845,11.106
			 M10.84,9.15h0.005H10.84z M10.84,9.15c-5.05,3.25-8.09,8.83-8.07,14.83c0,12.84,7.76,18.48,14.25,20.72v-8.812
			c0-0.769,0.32-2,1.33-2.949c-3.34-2.279-3.95-6.27-3.95-6.27s1.17-3.78,7-3.78c1.42,0,2.6-2.36,2.6-2.36s-1.73-0.82-4.19-2.23
			c-0.97-0.61-1.85-1.36-2.59-2.24c-0.15-0.16-0.31-0.3-0.48-0.43c-0.21-0.85-0.32-1.72-0.32-2.6c0-0.84,0.09-1.66,0.26-2.48
			c-1.92,1.01-3.64,2.36-5.06,4h-0.07C10.96,12.81,10.72,10.98,10.84,9.15L10.84,9.15z"/>
	</g>
	<g>
		<path fill="#FFFFFF" d="M28.5,45.49h-8.7C21.48,45.859,22.95,46,24,46C25.54,45.99,27.05,45.809,28.5,45.49L28.5,45.49z"/>
	</g>
	<g>
		<path fill="#FFFFFF" d="M30.253,3.464c0.917,1.738,2.032,3.36,3.328,4.838l0.777,0.875c2.407,2.702,5.136,5.765,6.306,8.865
			c0.149,0.397,0.528,0.647,0.936,0.647c0.088,0,0.177-0.012,0.266-0.036c0.498-0.137,0.81-0.631,0.719-1.14
			c-0.088-0.495-0.191-0.986-0.31-1.475c1.053,1.975,1.956,4.836,1.956,8.843c-0.035,1.987-0.338,3.906-0.903,5.717H32.778
			c0.737-1.371,1.11-2.979,1.11-4.798c0.03-2.372-0.796-4.617-2.263-6.372c0.577,0.238,1.12,0.562,1.609,0.962
			c0.185,0.151,0.409,0.227,0.634,0.227c0.228,0,0.454-0.077,0.64-0.231c0.368-0.307,0.468-0.831,0.236-1.251
			c-2.083-3.786-6.001-6.186-10.303-6.34C25.094,9.068,27.195,5.693,30.253,3.464 M30.641,2c-4.16,2.57-6.871,6.93-7.342,11.789h0.7
			c4.099,0,7.89,2.23,9.87,5.83c-1.323-1.084-2.974-1.673-4.666-1.673c-0.291,0-0.582,0.018-0.874,0.053
			c2.84,1.55,4.601,4.54,4.56,7.79c0,2.621-0.83,4.49-2.039,5.811h13.199c0.741-2.1,1.141-4.359,1.182-6.699
			c0-10.18-5.67-13.5-5.67-13.5c0.959,1.99,1.649,4.11,2.039,6.29c-1.369-3.63-4.699-7.14-7.27-10.05C32.84,5.94,31.6,4.04,30.641,2
			L30.641,2z"/>
	</g>
	<g>
		<path fill="#FFFFFF" d="M43.8,33.6v8.431c0,0.053,0.009,0.13,0.017,0.183c0.003,0.015,0.058,0.376-0.172,0.685
			c-0.219,0.294-0.666,0.499-1.295,0.593H19.02V35.89c0-0.079,0.029-1.928,2.52-2.29H43.8 M44.8,32.6H21.47
			c-3.45,0.46-3.45,3.29-3.45,3.29v8.601h24.4c2.811-0.38,2.38-2.46,2.38-2.46V32.6L44.8,32.6z"/>
	</g>
	<path id="E" fill="none" stroke="#FFFFFF" stroke-linecap="round" stroke-linejoin="round" stroke-miterlimit="10" d="
		M40.188,38.625h-3.094 M37.094,38.625v2.812h3.451 M40.545,35.812h-3.451v2.812"/>
	<path id="T" fill="none" stroke="#FFFFFF" stroke-linecap="round" stroke-linejoin="round" stroke-miterlimit="10" d="
		M32.875,35.812v5.625 M32.875,35.812h-2.438 M35.438,35.812h-2.562"/>
	
		<line id="I" fill="none" stroke="#FFFFFF" stroke-linecap="round" stroke-linejoin="round" stroke-miterlimit="10" x1="28.625" y1="35.812" x2="28.625" y2="41.438"/>
	<polyline id="L" fill="none" stroke="#FFFFFF" stroke-linecap="round" stroke-linejoin="round" stroke-miterlimit="10" points="
		23.299,35.812 23.299,41.438 26.75,41.438 	"/>
</g>
</svg>
