<?xml version="1.0" encoding="utf-8"?>
<!DOCTYPE svg PUBLIC "-//W3C//DTD SVG 1.1//EN" "http://www.w3.org/Graphics/SVG/1.1/DTD/svg11.dtd">
<svg version="1.1" id="Layer_2" xmlns="http://www.w3.org/2000/svg" xmlns:xlink="http://www.w3.org/1999/xlink" x="0px" y="0px"
	 width="48px" height="48px" viewBox="-23.5 24.5 48 48" enable-background="new -23.5 24.5 48 48" xml:space="preserve">
<g>
	<g>
		<path fill="#FFFFFF" d="M-10.729,42.48c2.689,0.458,7.721,1.167,13.088,1.167c3.503,0,6.653-0.305,9.385-0.906v15.997
			c-0.837,0.755-1.861,1.414-3.048,1.962c-0.354,0.163-0.581,0.519-0.581,0.908v5.775c0,1.167-1.193,2.116-2.659,2.116
			c-1.468,0-2.662-0.949-2.662-2.113l0.012-4.096c0.001-0.272-0.11-0.534-0.307-0.724c-0.187-0.18-0.435-0.279-0.693-0.279
			c-0.014,0-0.027,0-0.041,0.001C1.492,62.3,1.208,62.31,0.936,62.31c-0.578,0-1.117-0.021-1.647-0.065
			c-0.028-0.003-0.055-0.004-0.083-0.004c-0.25,0-0.492,0.094-0.677,0.264c-0.206,0.189-0.323,0.457-0.323,0.736v4.146
			c0,1.166-1.193,2.114-2.661,2.114c-1.467,0-2.66-0.948-2.66-2.114v-6.073c0-0.376-0.211-0.721-0.546-0.891
			c-1.983-1.011-2.671-1.706-2.798-1.929l-0.158-9.137L-10.729,42.48 M-11.726,41.282c-0.021,0.061-0.021,0.13-0.021,0.198
			l0.128,7.893l0.159,9.198c0,0.773,1.612,1.859,3.343,2.741v6.073c0,1.721,1.642,3.114,3.66,3.114c2.018,0,3.661-1.394,3.661-3.114
			V63.24c0.573,0.048,1.147,0.069,1.73,0.069c0.287,0,0.584-0.01,0.871-0.021l-0.012,4.096c0,1.721,1.642,3.116,3.662,3.116
			c2.017,0,3.659-1.396,3.659-3.116v-5.775c1.374-0.634,2.552-1.414,3.491-2.305c0.089-0.179,0.138-0.365,0.138-0.543V41.47
			c-2.967,0.793-6.439,1.178-10.385,1.178c-6.103,0-11.831-0.939-14.005-1.346l-0.07-0.01L-11.726,41.282L-11.726,41.282z"/>
	</g>
	<g>
		<path fill="#FFFFFF" d="M-15.326,40.608c0.896,0,1.625,0.729,1.625,1.624c0,0.042-0.001,0.081-0.004,0.121
			c-0.006,0.068-0.004,0.138,0.004,0.205v12.778c0,0.896-0.729,1.625-1.625,1.625c-0.896,0-1.624-0.729-1.624-1.625V42.563
			c0.008-0.064,0.01-0.13,0.005-0.196c-0.003-0.045-0.005-0.089-0.005-0.135C-16.95,41.337-16.222,40.608-15.326,40.608
			 M-15.326,39.608c-1.448,0-2.624,1.175-2.624,2.624c0,0.07,0.003,0.138,0.008,0.206h-0.008v12.898c0,1.45,1.175,2.625,2.624,2.625
			c1.45,0,2.625-1.175,2.625-2.625V42.438h-0.008c0.006-0.068,0.008-0.135,0.008-0.206C-12.702,40.783-13.876,39.608-15.326,39.608
			L-15.326,39.608z"/>
	</g>
	<g>
		<path fill="#FFFFFF" d="M16.324,40.608c0.896,0,1.626,0.729,1.626,1.624c0,0.05-0.003,0.096-0.006,0.149
			c-0.003,0.06-0.001,0.119,0.006,0.178v12.777c0,0.896-0.729,1.625-1.626,1.625c-0.895,0-1.624-0.729-1.624-1.625V42.563
			c0.009-0.069,0.01-0.14,0.004-0.21c-0.003-0.04-0.004-0.08-0.004-0.121C14.701,41.337,15.429,40.608,16.324,40.608 M16.324,39.608
			c-1.449,0-2.624,1.175-2.624,2.624c0,0.07,0.002,0.138,0.008,0.206h-0.008v12.898c0,1.45,1.174,2.625,2.624,2.625
			c1.451,0,2.626-1.175,2.626-2.625V42.438h-0.008c0.004-0.068,0.008-0.135,0.008-0.206C18.95,40.783,17.775,39.608,16.324,39.608
			L16.324,39.608z"/>
	</g>
	<g>
		<path fill="#FFFFFF" d="M0.594,29.37c1.871,0,3.712,0.468,5.324,1.352c0.147,0.081,0.307,0.121,0.465,0.123
			c0.079,0.138,0.189,0.256,0.325,0.344c2.873,1.859,4.75,4.941,5.09,8.349c-2.697,0.67-5.896,1.009-9.522,1.009
			c-5.314,0-10.348-0.734-12.869-1.17c0.37-3.341,2.254-6.389,5.122-8.235c0.134-0.086,0.244-0.202,0.322-0.337
			c0.159,0,0.319-0.039,0.468-0.118C-3.049,29.812-1.274,29.37,0.594,29.37 M8.889,26.5c-0.162,0-0.321,0.079-0.421,0.229
			l-2.068,3.116C4.668,28.896,2.69,28.37,0.594,28.37c-2.077,0-4.026,0.514-5.747,1.434l-2.046-3.075
			c-0.093-0.148-0.247-0.227-0.405-0.227c-0.095,0-0.192,0.028-0.277,0.088c-0.228,0.147-0.296,0.456-0.138,0.683l2.006,3.027
			c-3.194,2.058-5.39,5.549-5.626,9.585c-0.01,0.069-0.01,0.128-0.01,0.207c0,0.061,0.039,0.109,0.099,0.129
			c2.137,0.396,7.774,1.325,13.826,1.325c4.046,0,7.566-0.416,10.475-1.226c0.061-0.021,0.09-0.069,0.09-0.129
			c0-0.091,0-0.189-0.011-0.297c-0.235-4.017-2.413-7.497-5.578-9.546l2.047-3.076c0.147-0.227,0.089-0.534-0.138-0.691
			C9.076,26.526,8.982,26.5,8.889,26.5L8.889,26.5z"/>
	</g>
	<g>
		<path fill="#FFFFFF" d="M7.133,34.028c-0.632,0-1.148,0.484-1.148,1.098c0,0.604,0.516,1.098,1.148,1.098
			c0.634,0,1.146-0.493,1.148-1.098C8.281,34.513,7.767,34.028,7.133,34.028L7.133,34.028z M-5.736,34.028
			c-0.632,0-1.147,0.484-1.147,1.098c0,0.604,0.515,1.098,1.147,1.098c0.633,0,1.138-0.493,1.138-1.098
			C-4.598,34.513-5.103,34.028-5.736,34.028L-5.736,34.028z"/>
	</g>
</g>
</svg>
