<?xml version="1.0" encoding="utf-8"?>
<!DOCTYPE svg PUBLIC "-//W3C//DTD SVG 1.1//EN" "http://www.w3.org/Graphics/SVG/1.1/DTD/svg11.dtd">
<svg version="1.1" id="Layer_2" xmlns="http://www.w3.org/2000/svg" xmlns:xlink="http://www.w3.org/1999/xlink" x="0px" y="0px"
	 width="48px" height="48px" viewBox="0 0 48 48" enable-background="new 0 0 48 48" xml:space="preserve">
<g>
	<g>
		<path fill="#FFFFFF" d="M25.477,16.599c4.228,0,7.666,3.439,7.666,7.666c0,4.226-3.438,7.665-7.666,7.665
			c-4.227,0-7.666-3.438-7.666-7.665C17.811,20.038,21.25,16.599,25.477,16.599 M25.477,15.599c-4.777,0-8.666,3.888-8.666,8.666
			c0,4.777,3.888,8.665,8.666,8.665c4.778,0,8.666-3.888,8.666-8.665C34.143,19.487,30.255,15.599,25.477,15.599L25.477,15.599z"/>
	</g>
	<g>
		<path fill="#FFFFFF" d="M24,3.5c9.493,0,17.217,7.724,17.217,17.217c0,9.494-7.724,17.219-17.217,17.219
			c-9.494,0-17.218-7.725-17.218-17.219C6.782,11.224,14.506,3.5,24,3.5 M25.477,36.292c6.634,0,12.03-5.397,12.03-12.031
			c0-6.634-5.396-12.032-12.03-12.032c-6.632,0-12.028,5.397-12.028,12.032C13.448,30.895,18.844,36.292,25.477,36.292 M24,2.5
			c-10.062,0-18.218,8.153-18.218,18.217c0,10.064,8.156,18.219,18.218,18.219c10.062,0,18.217-8.154,18.217-18.219
			C42.217,10.652,34.062,2.5,24,2.5L24,2.5z M25.477,35.292c-6.081,0-11.028-4.946-11.028-11.031
			c0-6.083,4.947-11.032,11.028-11.032c6.082,0,11.03,4.949,11.03,11.032C36.507,30.346,31.559,35.292,25.477,35.292L25.477,35.292z
			"/>
	</g>
	<g>
		<path fill="#FFFFFF" d="M33.467,39.501c1.27,0.496,3.803,2.85,5.139,4.231c-0.265,0.257-0.508,0.451-0.656,0.531
			c-3.42-0.943-8.215-1.482-13.191-1.482c-3.652,0-9.044,0.291-14.176,1.661c-0.416-0.249-0.813-0.511-1.103-0.722
			c1.09-1.116,3.985-3.566,5.3-3.946c1.294,0.477,5.786,2.044,8.913,2.044c0.116,0,0.229-0.002,0.342-0.007
			C28.404,41.639,32.369,39.994,33.467,39.501 M33.407,38.447c-0.03,0-0.062,0.007-0.089,0.021
			c-0.043,0.023-4.449,2.151-9.324,2.345c-0.099,0.004-0.2,0.006-0.302,0.006c-3.397,0-8.725-2.042-8.778-2.061
			c-0.022-0.011-0.045-0.015-0.069-0.015c-0.011,0-0.021,0-0.033,0.002c-1.892,0.303-6.313,4.319-6.596,4.94
			c-0.05,0.103-0.024,0.181,0.003,0.228c0.307,0.493,1.961,1.455,2.15,1.563c0.03,0.016,0.064,0.024,0.1,0.024
			c0.018,0,0.035-0.003,0.051-0.006c5.119-1.416,10.567-1.714,14.238-1.714c4.958,0,9.723,0.542,13.062,1.484
			c0.045,0.014,0.091,0.021,0.14,0.021c0.646,0,1.694-1.191,1.897-1.434c0.067-0.074,0.065-0.188-0.008-0.256
			c-0.175-0.195-4.425-4.715-6.404-5.146C33.433,38.449,33.42,38.447,33.407,38.447L33.407,38.447z"/>
	</g>
</g>
</svg>
