<?xml version="1.0" encoding="utf-8"?>
<!DOCTYPE svg PUBLIC "-//W3C//DTD SVG 1.1//EN" "http://www.w3.org/Graphics/SVG/1.1/DTD/svg11.dtd">
<svg version="1.1" id="Layer_2" xmlns="http://www.w3.org/2000/svg" xmlns:xlink="http://www.w3.org/1999/xlink" x="0px" y="0px"
	 width="48px" height="48px" viewBox="0 0 48 48" enable-background="new 0 0 48 48" xml:space="preserve">
<g>
	<g>
		<path fill="#FFFFFF" d="M23.812,3c11.58,0,21,9.42,21,21c0,11.579-9.421,21-21,21s-21-9.421-21-21C2.812,12.42,12.232,3,23.812,3
			 M23.812,2c-12.15,0-22,9.85-22,22c0,12.15,9.85,22,22,22s22-9.85,22-22C45.812,11.85,35.963,2,23.812,2L23.812,2z"/>
	</g>
	<g>
		<path fill="#FFFFFF" d="M30.676,9.798c1.055,0,1.789,0.603,1.789,1.143v26.12c0,0.54-0.734,1.143-1.789,1.143H16.949
			c-1.054,0-1.789-0.603-1.789-1.143v-26.12c0-0.541,0.735-1.143,1.789-1.143H30.676 M30.676,8.798H16.949
			c-1.54,0-2.789,0.959-2.789,2.143v26.12c0,1.184,1.248,2.143,2.789,2.143h13.727c1.541,0,2.789-0.959,2.789-2.143v-26.12
			C33.465,9.757,32.217,8.798,30.676,8.798L30.676,8.798z"/>
	</g>
	<path fill="none" stroke="#FFFFFF" stroke-linecap="round" stroke-linejoin="round" stroke-miterlimit="10" d="M24,20.062V30
		 M24,30l-4.25-4.062 M28.25,25.938L24,30"/>
</g>
</svg>
