<?xml version="1.0" encoding="utf-8"?>
<!DOCTYPE svg PUBLIC "-//W3C//DTD SVG 1.1//EN" "http://www.w3.org/Graphics/SVG/1.1/DTD/svg11.dtd">
<svg version="1.1" id="Layer_1" xmlns="http://www.w3.org/2000/svg" xmlns:xlink="http://www.w3.org/1999/xlink" x="0px" y="0px"
	 width="48px" height="48px" viewBox="-23.5 24.5 48 48" enable-background="new -23.5 24.5 48 48" xml:space="preserve">
<g>
	<g>
		<path fill="#FFFFFF" d="M12.408,31.852C19.501,38.015,21,44.292,21,48.492c0,11.305-9.196,20.502-20.5,20.502
			S-20,59.797-20,48.492c0-7.479,4.774-12.982,8.523-16.55l3.089,3.281c-4.911,4.682-7.104,8.783-7.104,13.271
			c0,8.817,7.174,15.991,15.992,15.991s15.992-7.174,15.992-15.991c0-5.793-3.735-10.333-7.012-13.208L12.408,31.852 M12.378,30.724
			c-0.198,0-0.395,0.084-0.53,0.244l-3.33,3.905c-0.125,0.137-0.181,0.316-0.164,0.494c0.013,0.177,0.094,0.355,0.231,0.465
			c3.151,2.7,6.907,7.07,6.907,12.662c0,8.262-6.729,14.991-14.992,14.991c-8.263,0-14.992-6.728-14.992-14.991
			c0-4.262,2.166-8.193,7.017-12.758c0.136-0.122,0.219-0.301,0.219-0.479s-0.068-0.356-0.192-0.493l-3.521-3.74
			c-0.124-0.139-0.288-0.207-0.466-0.221c-0.178,0.014-0.371,0.067-0.494,0.191C-15.82,34.652-21,40.448-21,48.492
			c0,11.853,9.646,21.502,21.5,21.502c11.854,0,21.5-9.649,21.5-21.502c0-4.453-1.59-11.127-9.18-17.605
			C12.692,30.776,12.535,30.724,12.378,30.724L12.378,30.724z"/>
	</g>
	<g>
		<path fill="#FFFFFF" d="M2.793,28.006v0.205c0,0.553,0.448,1,1,1h0.503v11.36C3.769,40.6,3.35,41.036,3.35,41.57v9.208h-5.704
			l-0.08-9.393c-0.004-0.502-0.378-0.915-0.863-0.981V29.376h0.452c0.552,0,1-0.447,1-1v-0.37h0.524
			c0.002,0.001,0.006,0.002,0.01,0.003c0.103,0.035,0.209,0.052,0.316,0.052c0.11,0,0.221-0.019,0.326-0.055h0.842
			c0.008,0.003,0.014,0.005,0.014,0.005c0.091,0.029,0.194,0.043,0.298,0.043c0.117,0,0.235-0.017,0.341-0.048h0.802
			c0.002,0.001,0.006,0.002,0.01,0.003c0.092,0.031,0.196,0.045,0.301,0.045c0.117,0,0.235-0.018,0.34-0.048H2.793 M3.107,27.006
			H2.217c-0.098,0-0.18,0.027-0.262,0.055c-0.082-0.027-0.164-0.055-0.262-0.055H0.762c-0.096,0-0.179,0.027-0.261,0.055
			c-0.083-0.027-0.165-0.055-0.261-0.055h-0.987c-0.083,0-0.178,0.027-0.247,0.055c-0.082-0.027-0.178-0.055-0.26-0.055h-0.905
			c-0.37,0-0.686,0.314-0.686,0.686v0.685h-0.767c-0.384,0-0.685,0.315-0.685,0.685v11.647c0,0.385,0.302,0.687,0.685,0.687h0.178
			l0.082,9.7c0,0.369,0.303,0.684,0.686,0.684h6.331c0.384,0,0.685-0.314,0.685-0.684V41.57h0.262c0.384,0,0.685-0.314,0.685-0.684
			v-11.99c0-0.383-0.301-0.686-0.683-0.686h-0.82v-0.52C3.793,27.32,3.49,27.006,3.107,27.006L3.107,27.006z"/>
	</g>
</g>
</svg>
