<?xml version="1.0" encoding="utf-8"?>
<!DOCTYPE svg PUBLIC "-//W3C//DTD SVG 1.1//EN" "http://www.w3.org/Graphics/SVG/1.1/DTD/svg11.dtd">
<svg version="1.1" id="Layer_2" xmlns="http://www.w3.org/2000/svg" xmlns:xlink="http://www.w3.org/1999/xlink" x="0px" y="0px"
	 width="48px" height="48px" viewBox="-23.5 24.5 48 48" enable-background="new -23.5 24.5 48 48" xml:space="preserve">
<g>
	<g>
		<path fill="#FFFFFF" d="M6.928,38.753v11.276h-12.86V38.753H6.928 M7.111,37.753H-6.115c-0.449,0-0.817,0.366-0.817,0.816v11.644
			c0,0.446,0.368,0.816,0.817,0.816H7.111c0.452,0,0.817-0.367,0.817-0.816V38.569C7.928,38.119,7.563,37.753,7.111,37.753
			L7.111,37.753z"/>
	</g>
	<g>
		<path fill="#FFFFFF" d="M15.432,39.876v9.03h-4.843v-9.03H15.432 M15.615,38.876h-5.208c-0.452,0-0.817,0.368-0.817,0.817v9.396
			c0,0.45,0.366,0.817,0.817,0.817h5.208c0.45,0,0.817-0.367,0.817-0.817v-9.396C16.432,39.244,16.065,38.876,15.615,38.876
			L15.615,38.876z"/>
	</g>
	<path fill="none" stroke="#FFFFFF" stroke-miterlimit="10" d="M-9.197,64.483l0.178-30.577 M7.191,64.176
		c-0.08,0.028-0.161,0.046-0.246,0.046l-16.142,0.262v3.251c0,0.259-0.131,0.521-0.345,0.667c-0.147,0.101-0.309,0.15-0.473,0.15
		c-0.1,0-0.181-0.017-0.279-0.05l-5.507-1.993c-0.278-0.099-0.472-0.343-0.522-0.639c-0.017-0.036-0.033-0.167-0.033-0.214
		l-0.817-33.106l-3.35-1.533c-0.327-0.146-0.506-0.491-0.473-0.833c0.047-0.362,0.326-0.64,0.669-0.705l6.536-1.16
		c0.131-0.03,0.248-0.017,0.36,0.016l3.726,1.015c0.36,0.1,0.587,0.409,0.603,0.768l0.083,3.79l27.878,0.981
		c1.867,0.183,2.844,1.439,2.991,3.776L22,55.346c0,0.131-0.035,0.278-0.102,0.392l-0.784,1.478
		c-0.084,0.146-0.194,0.257-0.346,0.342 M7.209,64.168c1.167,2.668,3.829,4.53,6.927,4.53c4.174,0,7.558-3.383,7.558-7.558
		c0-1.304-0.33-2.532-0.912-3.604c-1.28-2.357-3.777-3.954-6.646-3.954c-4.174,0-7.558,3.383-7.558,7.558
		C6.58,62.218,6.804,63.24,7.209,64.168z"/>
	<g>
		<path fill="#FFFFFF" d="M14.137,60.016c-0.622,0-1.126,0.503-1.126,1.125s0.504,1.125,1.126,1.125s1.126-0.503,1.126-1.125
			S14.758,60.016,14.137,60.016L14.137,60.016z"/>
	</g>
	
		<line fill="none" stroke="#FFFFFF" stroke-linecap="round" stroke-linejoin="round" stroke-miterlimit="10" x1="14.137" y1="61.141" x2="10.917" y2="58.002"/>
	
		<line fill="none" stroke="#FFFFFF" stroke-linecap="round" stroke-linejoin="round" stroke-miterlimit="10" x1="14.137" y1="61.141" x2="16.713" y2="59.125"/>
	
		<line fill="none" stroke="#FFFFFF" stroke-linecap="round" stroke-miterlimit="10" x1="0.499" y1="56.546" x2="0.499" y2="61.482"/>
	
		<line fill="none" stroke="#FFFFFF" stroke-linecap="round" stroke-miterlimit="10" x1="-2.106" y1="56.546" x2="-2.106" y2="61.482"/>
	
		<line fill="none" stroke="#FFFFFF" stroke-linecap="round" stroke-miterlimit="10" x1="-4.608" y1="56.546" x2="-4.608" y2="61.482"/>
	
		<line fill="none" stroke="#FFFFFF" stroke-linecap="round" stroke-miterlimit="10" x1="-6.932" y1="56.546" x2="-6.932" y2="61.482"/>
</g>
</svg>
