<?xml version="1.0" encoding="utf-8"?>
<!-- Generator: Adobe Illustrator 16.0.0, SVG Export Plug-In . SVG Version: 6.00 Build 0)  -->
<!DOCTYPE svg PUBLIC "-//W3C//DTD SVG 1.1//EN" "http://www.w3.org/Graphics/SVG/1.1/DTD/svg11.dtd">
<svg version="1.1" id="Layer_1" xmlns="http://www.w3.org/2000/svg" xmlns:xlink="http://www.w3.org/1999/xlink" x="0px" y="0px"
	 width="48px" height="48px" viewBox="0 0 48 48" enable-background="new 0 0 48 48" xml:space="preserve">
<g id="Layer_1_1_">
	<path d="M44.911,32.359h-0.62c0.92-2.369,1.398-4.879,1.439-7.459c0-10.354-5.689-13.792-5.933-13.932
		c-0.188-0.111-0.43-0.091-0.59,0.059s-0.21,0.391-0.108,0.591c0.33,0.67,0.618,1.36,0.892,2.06c-1.341-1.939-2.99-3.789-4.511-5.5
		L34.71,7.311c-1.489-1.69-2.7-3.551-3.62-5.521c-0.061-0.13-0.17-0.229-0.311-0.271C30.648,1.48,30.5,1.5,30.38,1.57
		c-4.26,2.64-7.1,7.189-7.58,12.17c-0.01,0.14,0.03,0.279,0.131,0.39c0.09,0.101,0.229,0.16,0.369,0.16H24
		c3.17,0,6.141,1.39,8.16,3.739c-1.221-0.5-2.562-0.689-3.893-0.529c-0.221,0.029-0.391,0.189-0.431,0.41
		c-0.04,0.21,0.062,0.43,0.25,0.529c2.688,1.461,4.34,4.281,4.302,7.351c0,2.94-1.07,5.149-3.182,6.58h-8.81
		c-0.28,0.04-0.78,0.149-1.28,0.46c-3.21-1.84-4.06-5.42-4.2-6.12c0.23-0.59,1.59-3.319,6.471-3.319c1.689,0,2.92-2.371,3.06-2.641
		c0.06-0.12,0.067-0.26,0.021-0.38c-0.041-0.13-0.131-0.229-0.261-0.29c-0.01-0.01-1.739-0.83-4.13-2.2
		c-0.95-0.6-1.79-1.319-2.5-2.159c-0.12-0.141-0.26-0.261-0.41-0.381c-0.16-0.74-0.25-1.52-0.25-2.31c0-0.79,0.08-1.591,0.25-2.38
		c0.04-0.19-0.029-0.381-0.189-0.5c-0.15-0.12-0.36-0.131-0.53-0.041c-1.761,0.921-3.32,2.101-4.66,3.511
		c-0.399-1.44-0.55-2.931-0.45-4.431C11.35,9,11.26,8.83,11.09,8.73c-0.16-0.101-0.359-0.09-0.52,0.01
		c-5.221,3.34-8.32,9.029-8.301,15.24c0,18.47,15.69,22.52,21.73,22.52c2.271-0.02,4.5-0.38,6.642-1.09l11.738,0.09
		c1.41,0,3.03-0.359,3.03-3.17v-9.471C45.411,32.58,45.189,32.359,44.911,32.359z M33.393,25.8c0.028-2.88-1.25-5.55-3.432-7.31
		c1.311,0.15,2.561,0.67,3.59,1.52c0.19,0.15,0.461,0.15,0.643-0.01c0.181-0.15,0.229-0.41,0.119-0.62
		c-2.068-3.76-6.021-6.09-10.312-6.09H23.86c0.58-4.28,2.99-8.16,6.57-10.56c0.932,1.859,2.11,3.619,3.53,5.24l0.771,0.869
		c2.439,2.74,5.199,5.84,6.393,9.02c0.09,0.24,0.352,0.371,0.602,0.301c0.25-0.07,0.408-0.311,0.358-0.57
		c-0.263-1.48-0.66-2.949-1.2-4.369c1.61,1.77,3.854,5.359,3.854,11.667c-0.041,2.592-0.541,5.103-1.5,7.471H30.812
		C32.161,31.08,33.393,29.029,33.393,25.8z M18.291,33.55c-0.08,0.091-0.149,0.19-0.21,0.3c-0.08,0.121-0.141,0.25-0.2,0.381
		c-0.05,0.109-0.09,0.223-0.12,0.34c-0.05,0.15-0.09,0.32-0.119,0.49v9.353C11.121,42.32,3.271,36.77,3.271,23.98
		c-0.02-5.539,2.601-10.649,7.041-13.859c0,1.561,0.26,3.1,0.77,4.59c0.109,0.34,0.68,0.439,0.92,0.17c1.15-1.33,2.5-2.46,4.02-3.38
		c-0.069,0.51-0.1,1.021-0.1,1.53c0,0.93,0.109,1.85,0.32,2.72c0.029,0.11,0.1,0.22,0.199,0.29c0.15,0.109,0.291,0.23,0.4,0.34
		c0.75,0.9,1.67,1.689,2.721,2.35c1.689,0.971,3.06,1.67,3.739,2.021c-0.42,0.67-1.18,1.64-1.909,1.64
		c-6.121,0-7.42,3.959-7.471,4.129c-0.02,0.068-0.029,0.148-0.01,0.222c0.02,0.188,0.699,4.438,4.4,6.778
		C18.301,33.529,18.301,33.54,18.291,33.55z M24.001,45.5c-0.65,0-1.42-0.05-2.26-0.16l4.35,0.03
		C25.4,45.45,24.701,45.49,24.001,45.5z M44.411,42.33c0,2.01-0.882,2.17-2.03,2.17L30.57,44.41l-11.929-0.102L18.63,35.15
		c0.05-0.28,0.14-0.53,0.28-0.75c0.07-0.12,0.15-0.23,0.24-0.32c0.09-0.09,0.189-0.18,0.3-0.26c0.399-0.32,0.87-0.432,1.03-0.461
		h23.93L44.411,42.33L44.411,42.33z"/>
	<g>
		<path d="M28.734,42.312c-0.275,0-0.5-0.227-0.5-0.5v-5.906c0-0.276,0.225-0.5,0.5-0.5c0.274,0,0.5,0.224,0.5,0.5v5.906
			C29.234,42.089,29.014,42.312,28.734,42.312z"/>
		<path d="M35.831,35.811c0,0.279-0.222,0.5-0.5,0.5h-1.5v5.5c0,0.279-0.222,0.5-0.5,0.5c-0.271,0-0.5-0.221-0.5-0.5v-5.5h-1.5
			c-0.271,0-0.5-0.221-0.5-0.5c0-0.277,0.229-0.5,0.5-0.5h4C35.609,35.311,35.831,35.529,35.831,35.811z"/>
		<path d="M41.23,41.811c0,0.279-0.229,0.5-0.5,0.5H37.92c-0.279,0-0.5-0.221-0.5-0.5v-5.897c0-0.021,0-0.03,0.012-0.052
			c-0.012-0.021-0.012-0.028-0.012-0.051c0-0.277,0.221-0.5,0.5-0.5h2.812c0.27,0,0.5,0.223,0.5,0.5c0,0.279-0.23,0.5-0.5,0.5H38.42
			v2.051h1.932c0.278,0,0.5,0.222,0.5,0.5c0,0.279-0.222,0.5-0.5,0.5H38.42v1.949h2.312C41.001,41.311,41.23,41.54,41.23,41.811z"/>
		<path d="M26.621,41.811c0,0.279-0.221,0.5-0.5,0.5h-2.81c-0.271,0-0.5-0.221-0.5-0.5v-5.897c0-0.28,0.229-0.5,0.5-0.5
			c0.279,0,0.5,0.22,0.5,0.5v5.397h2.31C26.4,41.311,26.621,41.54,26.621,41.811z"/>
	</g>
</g>
</svg>
