<?xml version="1.0" encoding="utf-8"?>
<!-- Generator: Adobe Illustrator 16.0.0, SVG Export Plug-In . SVG Version: 6.00 Build 0)  -->
<!DOCTYPE svg PUBLIC "-//W3C//DTD SVG 1.1//EN" "http://www.w3.org/Graphics/SVG/1.1/DTD/svg11.dtd">
<svg version="1.1" id="Layer_2" xmlns="http://www.w3.org/2000/svg" xmlns:xlink="http://www.w3.org/1999/xlink" x="0px" y="0px"
	 width="48px" height="48px" viewBox="0 0 48 48" enable-background="new 0 0 48 48" xml:space="preserve">
<g>
	<path d="M27.772,16.969v13.624l-4.423-4.016c-0.186-0.166-0.425-0.26-0.673-0.26c-0.006,0-0.013,0-0.019,0l-4.698,0.084v-5.213
		h4.355c0.232,0,0.457-0.082,0.638-0.229L27.772,16.969 M28.022,15.688c-0.172,0-0.342,0.06-0.479,0.172l-5.229,4.328h-4.604
		c-0.413,0-0.75,0.336-0.75,0.75v5.719c0,0.201,0.081,0.395,0.227,0.535c0.139,0.139,0.328,0.215,0.523,0.215
		c0.006,0,0.01,0,0.016,0l4.952-0.088l4.842,4.395c0.141,0.127,0.32,0.193,0.504,0.193c0.104,0,0.205-0.021,0.305-0.064
		c0.27-0.119,0.445-0.389,0.445-0.686V16.438c0-0.291-0.168-0.556-0.432-0.68C28.239,15.712,28.132,15.688,28.022,15.688
		L28.022,15.688z"/>
	<path d="M8.318,15.9c-0.085,0-0.171-0.021-0.25-0.067c-0.238-0.139-0.32-0.444-0.182-0.684c3.085-5.333,8.825-8.646,14.979-8.646
		c0.276,0,0.5,0.224,0.5,0.5s-0.224,0.5-0.5,0.5c-5.799,0-11.207,3.121-14.114,8.146C8.659,15.811,8.491,15.9,8.318,15.9z"/>
	<path d="M23.14,41.496c-6.154,0-11.896-3.312-14.98-8.646c-0.139-0.238-0.057-0.545,0.182-0.683
		c0.239-0.14,0.545-0.057,0.684,0.183c2.907,5.024,8.316,8.146,14.115,8.146c0.276,0,0.5,0.224,0.5,0.5S23.416,41.496,23.14,41.496z
		"/>
	<path d="M37.433,32.696c-0.086,0-0.172-0.021-0.251-0.067c-0.238-0.139-0.32-0.444-0.182-0.684
		c1.427-2.463,2.181-5.281,2.181-8.147S38.427,18.114,37,15.65c-0.139-0.239-0.057-0.545,0.182-0.684
		c0.236-0.138,0.544-0.059,0.684,0.183c1.515,2.616,2.315,5.606,2.315,8.648s-0.801,6.033-2.315,8.649
		C37.772,32.606,37.604,32.696,37.433,32.696z"/>
	<path d="M10.79,17.278c-0.085,0-0.171-0.021-0.25-0.067c-0.239-0.139-0.321-0.444-0.183-0.684
		c2.593-4.481,7.415-7.265,12.585-7.265c0.276,0,0.5,0.224,0.5,0.5s-0.224,0.5-0.5,0.5c-4.814,0-9.305,2.593-11.72,6.766
		C11.131,17.188,10.963,17.278,10.79,17.278z"/>
	<path d="M22.941,38.329c-5.17,0-9.991-2.782-12.583-7.262c-0.139-0.238-0.057-0.545,0.183-0.683
		c0.239-0.141,0.544-0.057,0.683,0.183c2.414,4.171,6.904,6.762,11.718,6.762c0.276,0,0.5,0.224,0.5,0.5
		S23.218,38.329,22.941,38.329z"/>
	<path d="M34.929,31.317c-0.085,0-0.172-0.021-0.25-0.067c-0.239-0.138-0.321-0.444-0.183-0.683c1.185-2.05,1.812-4.391,1.812-6.769
		s-0.627-4.719-1.813-6.771c-0.139-0.239-0.057-0.545,0.183-0.683c0.236-0.141,0.544-0.058,0.683,0.182
		c1.274,2.204,1.948,4.718,1.948,7.271s-0.673,5.067-1.946,7.269C35.269,31.228,35.101,31.317,34.929,31.317z"/>
	<path d="M13.248,18.676c-0.085,0-0.171-0.021-0.25-0.067c-0.238-0.139-0.32-0.444-0.182-0.684c2.069-3.578,5.921-5.801,10.05-5.801
		c0.276,0,0.5,0.224,0.5,0.5s-0.224,0.5-0.5,0.5c-3.773,0-7.293,2.031-9.185,5.302C13.589,18.586,13.421,18.676,13.248,18.676z"/>
	<path d="M22.865,35.47c-4.129,0-7.979-2.222-10.048-5.799c-0.139-0.238-0.057-0.545,0.182-0.683
		c0.239-0.14,0.545-0.057,0.684,0.183c1.891,3.269,5.409,5.299,9.183,5.299c0.276,0,0.5,0.224,0.5,0.5S23.142,35.47,22.865,35.47z"
		/>
	<path d="M32.608,29.849c-0.085,0-0.171-0.021-0.25-0.067c-0.239-0.138-0.321-0.443-0.183-0.683c0.927-1.606,1.417-3.44,1.417-5.303
		c0-1.864-0.489-3.696-1.415-5.298c-0.139-0.239-0.057-0.545,0.183-0.684c0.235-0.138,0.543-0.057,0.683,0.183
		c1.014,1.754,1.55,3.759,1.55,5.799c0,2.037-0.536,4.044-1.552,5.803C32.949,29.759,32.78,29.849,32.608,29.849z"/>
</g>
</svg>
