<?xml version="1.0" encoding="utf-8"?>
<!-- Generator: Adobe Illustrator 16.0.0, SVG Export Plug-In . SVG Version: 6.00 Build 0)  -->
<!DOCTYPE svg PUBLIC "-//W3C//DTD SVG 1.1//EN" "http://www.w3.org/Graphics/SVG/1.1/DTD/svg11.dtd">
<svg version="1.1" id="Layer_2" xmlns="http://www.w3.org/2000/svg" xmlns:xlink="http://www.w3.org/1999/xlink" x="0px" y="0px"
	 width="48px" height="48px" viewBox="0 0 48 48" enable-background="new 0 0 48 48" xml:space="preserve">
<path d="M48,22.89v-3.9c0-0.28-0.221-0.5-0.5-0.5H30.43l-6.05-6.91l3.149-2.91L14.06,3.89l2.67,13.88l3.24-2.54l2.84,3.26H0.5
	c-0.28,0-0.5,0.22-0.5,0.5v3.9c0,0.28,0.22,0.5,0.5,0.5h26.58l0.479,0.55c-2.879,0.44-5.8,1.5-8.146,3.25
	c-4.34,3.223-5.37,6.812-4.98,9.699H0.5c-0.28,0-0.5,0.23-0.5,0.5v3.9c0,0.279,0.22,0.5,0.5,0.5h16.43c2.15,1.84,5.94,3.2,9.759,3.2
	c2.601,0,5.221-0.63,7.34-2.15c0.479-0.35,0.938-0.7,1.359-1.05H47.5c0.279,0,0.5-0.221,0.5-0.5v-3.9c0-0.27-0.221-0.5-0.5-0.5
	h-7.93c0.76-1.47,1.1-2.896,1.13-4.229c0.03-1.03,0.06-2.08-0.392-2.9c-0.842-1.5-4.539-5.18-4.539-5.18l-1.039-1.19H47.5
	C47.779,23.39,48,23.17,48,22.89z M20.72,14.57c-0.19-0.22-0.47-0.34-0.75-0.34c-0.22,0-0.43,0.07-0.62,0.21l-1.95,1.53L15.37,5.42
	l10.271,3.64l-1.938,1.79c-0.4,0.36-0.43,0.98-0.07,1.39l5.479,6.25H24.14L20.72,14.57z M1,40.79v-2.899h13.61
	c0.25,1.01,0.66,1.893,1.14,2.609c0.06,0.1,0.13,0.189,0.21,0.29H1z M47,37.891v2.899H36.529c1.029-0.97,1.841-1.95,2.451-2.899H47z
	 M35.02,25.24c0.014,0.02,0.03,0.029,0.041,0.05c1.01,1,3.739,3.83,4.369,4.95c0.32,0.59,0.301,1.5,0.271,2.39
	c-0.04,1.431-0.471,2.86-1.29,4.261c-0.19,0.34-0.41,0.67-0.66,1c-0.71,0.989-1.62,1.971-2.72,2.899
	c-0.391,0.34-0.811,0.681-1.262,1c-0.102,0.08-0.209,0.16-0.318,0.239c-1.79,1.279-4.131,1.961-6.76,1.961
	c-3.164,0-6.09-0.961-8.062-2.2c-0.51-0.31-0.96-0.649-1.32-1c-0.3-0.28-0.54-0.56-0.73-0.84c-0.14-0.21-0.61-0.96-0.92-2.062
	c-0.09-0.302-0.17-0.642-0.23-1c-0.34-2.342,0.23-5.672,4.58-8.898c2.05-1.53,4.79-2.62,7.7-3.061
	c0.359-0.062,0.66-0.303,0.79-0.651c0.108-0.3,0.062-0.63-0.108-0.89h5.01L35.02,25.24z M47,22.39H1v-2.9h46V22.39z"/>
</svg>
