<?xml version="1.0" encoding="utf-8"?>
<!-- Generator: Adobe Illustrator 16.0.0, SVG Export Plug-In . SVG Version: 6.00 Build 0)  -->
<!DOCTYPE svg PUBLIC "-//W3C//DTD SVG 1.1//EN" "http://www.w3.org/Graphics/SVG/1.1/DTD/svg11.dtd">
<svg version="1.1" id="Layer_2" xmlns="http://www.w3.org/2000/svg" xmlns:xlink="http://www.w3.org/1999/xlink" x="0px" y="0px"
	 width="48px" height="48px" viewBox="0 0 48 48" enable-background="new 0 0 48 48" xml:space="preserve">
<g>
	<path d="M24,38.326c-8.65,0-15.688-7.037-15.688-15.688c0-5.863,3.776-10.095,6.616-12.769c0.097-0.091,0.231-0.129,0.358-0.136
		c0.133,0.004,0.258,0.061,0.349,0.157l2.569,2.731c0.091,0.097,0.14,0.226,0.136,0.358c-0.004,0.133-0.061,0.258-0.157,0.349
		c-3.542,3.331-5.121,6.202-5.121,9.309c0,6.031,4.907,10.938,10.938,10.938s10.938-4.906,10.938-10.938
		c0-4.078-2.738-7.271-5.037-9.233c-0.102-0.086-0.164-0.209-0.174-0.341c-0.011-0.132,0.031-0.263,0.119-0.364l2.437-2.852
		c0.18-0.21,0.497-0.233,0.704-0.056c5.539,4.728,6.701,9.595,6.701,12.845C39.688,31.289,32.65,38.326,24,38.326z M15.252,10.943
		c-2.653,2.558-5.939,6.46-5.939,11.695c0,8.098,6.589,14.688,14.688,14.688c8.099,0,14.688-6.59,14.688-14.688
		c0-2.966-1.049-7.382-5.975-11.756l-1.788,2.092c2.371,2.12,5.013,5.432,5.013,9.665c0,6.582-5.355,11.938-11.938,11.938
		s-11.938-5.354-11.938-11.938c0-3.294,1.568-6.298,5.074-9.692L15.252,10.943z"/>
	<path d="M26.312,25.037h-4.625c-0.274,0-0.498-0.223-0.5-0.496l-0.059-7.078H21c-0.276,0-0.5-0.224-0.5-0.5v-8.5
		c0-0.276,0.224-0.5,0.5-0.5h0.562v-0.5c0-0.276,0.224-0.5,0.5-0.5h0.656c0.066,0,0.129,0.013,0.188,0.036
		c0.058-0.023,0.121-0.036,0.188-0.036h0.719c0.066,0,0.129,0.013,0.188,0.036c0.058-0.023,0.121-0.036,0.188-0.036h0.68
		c0.066,0,0.13,0.013,0.188,0.036c0.059-0.023,0.121-0.036,0.188-0.036H25.9c0.276,0,0.5,0.224,0.5,0.5v0.375H27
		c0.275,0,0.5,0.224,0.5,0.5v8.75c0,0.276-0.225,0.5-0.5,0.5h-0.188v6.949C26.812,24.812,26.589,25.037,26.312,25.037z
		 M22.184,24.037h3.628v-6.949c0-0.276,0.225-0.5,0.5-0.5H26.5v-5.492c-0.068,0.035-0.145,0.054-0.227,0.054h-0.375
		c-0.127,0-0.24-0.046-0.328-0.123c-0.088,0.076-0.202,0.123-0.328,0.123h-0.375c-0.131,0-0.251-0.051-0.34-0.133
		c-0.089,0.083-0.208,0.133-0.34,0.133h-0.375c-0.141,0-0.269-0.059-0.359-0.152c-0.091,0.094-0.218,0.152-0.359,0.152h-0.375
		c-0.125,0-0.24-0.046-0.328-0.123c-0.088,0.076-0.203,0.123-0.328,0.123h-0.375c-0.066,0-0.129-0.013-0.188-0.036v5.349h0.125
		c0.274,0,0.498,0.221,0.5,0.496L22.184,24.037z"/>
</g>
</svg>
