<?xml version="1.0" encoding="utf-8"?>
<!-- Generator: Adobe Illustrator 16.0.0, SVG Export Plug-In . SVG Version: 6.00 Build 0)  -->
<!DOCTYPE svg PUBLIC "-//W3C//DTD SVG 1.1//EN" "http://www.w3.org/Graphics/SVG/1.1/DTD/svg11.dtd">
<svg version="1.1" id="Layer_1" xmlns="http://www.w3.org/2000/svg" xmlns:xlink="http://www.w3.org/1999/xlink" x="0px" y="0px"
	 width="48px" height="48px" viewBox="0 0 48 48" enable-background="new 0 0 48 48" xml:space="preserve">
<g id="Layer_1_1_">
	<path fill="#FFFFFF" d="M44.911,32.359h-0.62c0.92-2.369,1.399-4.879,1.44-7.459c0-10.352-5.69-13.791-5.932-13.93
		c-0.189-0.111-0.43-0.091-0.59,0.059c-0.16,0.15-0.21,0.391-0.109,0.591c0.33,0.67,0.619,1.36,0.891,2.06
		c-1.34-1.939-2.99-3.789-4.51-5.5L34.71,7.311c-1.49-1.69-2.7-3.551-3.62-5.521c-0.06-0.13-0.17-0.229-0.31-0.271
		C30.649,1.48,30.5,1.5,30.38,1.57c-4.26,2.64-7.1,7.189-7.58,12.17c-0.01,0.14,0.03,0.279,0.131,0.39
		c0.09,0.101,0.229,0.16,0.369,0.16H24c3.17,0,6.14,1.39,8.16,3.739c-1.22-0.5-2.562-0.689-3.892-0.529
		c-0.22,0.029-0.39,0.189-0.43,0.41c-0.04,0.21,0.061,0.43,0.25,0.529c2.689,1.461,4.34,4.281,4.301,7.351
		c0,2.94-1.07,5.149-3.181,6.58h-8.81c-0.28,0.04-0.78,0.149-1.28,0.46c-3.21-1.84-4.06-5.42-4.2-6.12
		c0.23-0.59,1.59-3.319,6.471-3.319c1.689,0,2.92-2.371,3.06-2.641c0.06-0.12,0.069-0.26,0.021-0.38
		c-0.041-0.13-0.131-0.229-0.261-0.29c-0.01-0.01-1.739-0.83-4.13-2.2c-0.95-0.6-1.79-1.319-2.5-2.159
		c-0.12-0.141-0.26-0.261-0.41-0.381c-0.16-0.74-0.25-1.52-0.25-2.31s0.08-1.591,0.25-2.38c0.04-0.19-0.029-0.381-0.189-0.5
		c-0.15-0.12-0.36-0.131-0.53-0.041c-1.761,0.921-3.32,2.101-4.66,3.511c-0.399-1.44-0.55-2.931-0.45-4.431
		c0.01-0.189-0.08-0.359-0.25-0.459c-0.16-0.101-0.359-0.09-0.52,0.01c-5.221,3.34-8.32,9.029-8.301,15.24
		c0,18.47,15.69,22.52,21.73,22.52c2.27-0.02,4.5-0.38,6.641-1.09l11.739,0.09c1.41,0,3.03-0.359,3.03-3.17v-9.471
		C45.411,32.58,45.19,32.359,44.911,32.359z M33.392,25.8c0.029-2.88-1.25-5.55-3.431-7.31c1.31,0.15,2.56,0.67,3.59,1.52
		c0.19,0.15,0.46,0.15,0.642-0.01c0.18-0.15,0.229-0.41,0.119-0.62c-2.069-3.76-6.021-6.09-10.311-6.09H23.86
		c0.58-4.28,2.99-8.16,6.57-10.56c0.932,1.859,2.11,3.619,3.53,5.24l0.771,0.869c2.439,2.74,5.199,5.84,6.391,9.02
		c0.09,0.24,0.35,0.371,0.6,0.301s0.41-0.311,0.36-0.57c-0.261-1.48-0.66-2.949-1.2-4.369c1.61,1.77,3.852,5.359,3.852,11.668
		c-0.041,2.592-0.541,5.102-1.5,7.471H30.812C32.161,31.08,33.392,29.029,33.392,25.8z M18.291,33.55
		c-0.08,0.091-0.149,0.19-0.21,0.3c-0.08,0.121-0.141,0.25-0.2,0.381c-0.05,0.109-0.09,0.221-0.12,0.34
		c-0.05,0.15-0.09,0.32-0.119,0.49v9.351C11.121,42.32,3.271,36.77,3.271,23.98c-0.02-5.539,2.601-10.649,7.041-13.859
		c0,1.561,0.26,3.1,0.77,4.59c0.109,0.34,0.68,0.439,0.92,0.17c1.15-1.33,2.5-2.46,4.02-3.38c-0.069,0.51-0.1,1.021-0.1,1.53
		c0,0.93,0.109,1.85,0.32,2.72c0.029,0.11,0.1,0.22,0.199,0.29c0.15,0.109,0.291,0.23,0.4,0.34c0.75,0.9,1.67,1.689,2.721,2.35
		c1.689,0.971,3.06,1.67,3.739,2.021c-0.42,0.67-1.18,1.64-1.909,1.64c-6.121,0-7.42,3.959-7.471,4.129
		c-0.02,0.07-0.029,0.15-0.01,0.222c0.02,0.188,0.699,4.438,4.4,6.778C18.301,33.529,18.301,33.54,18.291,33.55z M24.001,45.5
		c-0.65,0-1.42-0.05-2.26-0.16l4.35,0.03C25.401,45.45,24.701,45.49,24.001,45.5z M44.411,42.33c0,2.01-0.881,2.17-2.03,2.17
		l-11.81-0.09l-11.93-0.102l-0.011-9.158c0.05-0.28,0.14-0.53,0.28-0.75c0.07-0.12,0.15-0.23,0.24-0.32s0.189-0.18,0.3-0.26
		c0.399-0.32,0.87-0.432,1.03-0.461h23.93V42.33z"/>
	<g>
		<path fill="#FFFFFF" d="M28.735,42.312c-0.276,0-0.5-0.225-0.5-0.5v-5.906c0-0.276,0.224-0.5,0.5-0.5c0.275,0,0.5,0.224,0.5,0.5
			v5.906C29.235,42.089,29.013,42.312,28.735,42.312z"/>
		<path fill="#FFFFFF" d="M35.831,35.811c0,0.279-0.221,0.5-0.5,0.5h-1.5v5.5c0,0.279-0.221,0.5-0.5,0.5c-0.271,0-0.5-0.221-0.5-0.5
			v-5.5h-1.5c-0.271,0-0.5-0.221-0.5-0.5s0.229-0.5,0.5-0.5h4C35.61,35.311,35.831,35.529,35.831,35.811z"/>
		<path fill="#FFFFFF" d="M41.231,41.811c0,0.279-0.23,0.5-0.5,0.5H37.92c-0.28,0-0.5-0.221-0.5-0.5v-5.899
			c0-0.021,0-0.03,0.011-0.05c-0.011-0.021-0.011-0.03-0.011-0.051c0-0.279,0.22-0.5,0.5-0.5h2.812c0.27,0,0.5,0.221,0.5,0.5
			s-0.23,0.5-0.5,0.5H38.42v2.051h1.931c0.279,0,0.5,0.22,0.5,0.5c0,0.279-0.221,0.5-0.5,0.5H38.42v1.949h2.312
			C41.001,41.311,41.231,41.54,41.231,41.811z"/>
		<path fill="#FFFFFF" d="M26.621,41.811c0,0.279-0.22,0.5-0.5,0.5h-2.81c-0.271,0-0.5-0.221-0.5-0.5v-5.899
			c0-0.28,0.229-0.5,0.5-0.5c0.279,0,0.5,0.22,0.5,0.5v5.399h2.31C26.401,41.311,26.621,41.54,26.621,41.811z"/>
	</g>
</g>
</svg>
