<?xml version="1.0" encoding="utf-8"?>
<!-- Generator: Adobe Illustrator 16.0.0, SVG Export Plug-In . SVG Version: 6.00 Build 0)  -->
<!DOCTYPE svg PUBLIC "-//W3C//DTD SVG 1.1//EN" "http://www.w3.org/Graphics/SVG/1.1/DTD/svg11.dtd">
<svg version="1.1" id="Layer_2" xmlns="http://www.w3.org/2000/svg" xmlns:xlink="http://www.w3.org/1999/xlink" x="0px" y="0px"
	 width="48px" height="48px" viewBox="0 0 48 48" enable-background="new 0 0 48 48" xml:space="preserve">
<path fill="#FFFFFF" d="M25.475,36.238c-4.825,0-8.75-3.925-8.75-8.75c0-4.825,3.925-8.75,8.75-8.75c4.825,0,8.75,3.925,8.75,8.75
	C34.225,32.313,30.3,36.238,25.475,36.238z M25.475,19.738c-4.273,0-7.75,3.477-7.75,7.75s3.477,7.75,7.75,7.75
	s7.75-3.477,7.75-7.75S29.748,19.738,25.475,19.738z"/>
<path fill="#FFFFFF" d="M24,7.656c9.012,0,16.344,7.332,16.344,16.344S33.012,40.344,24,40.344c-9.012,0-16.344-7.332-16.344-16.344
	S14.988,7.656,24,7.656 M25.406,38.875c6.341,0,11.5-5.159,11.5-11.5c0-6.341-5.159-11.5-11.5-11.5c-6.341,0-11.5,5.159-11.5,11.5
	C13.906,33.716,19.065,38.875,25.406,38.875 M24,6.656C14.421,6.656,6.656,14.421,6.656,24c0,9.578,7.765,17.344,17.344,17.344
	c9.578,0,17.344-7.766,17.344-17.344C41.344,14.421,33.578,6.656,24,6.656L24,6.656z M25.406,37.875c-5.79,0-10.5-4.71-10.5-10.5
	s4.71-10.5,10.5-10.5c5.789,0,10.5,4.71,10.5,10.5S31.195,37.875,25.406,37.875L25.406,37.875z"/>
<path fill="#FFFFFF" d="M32.969,41.34c1.048,0.421,3.106,2.214,4.823,3.978c-0.227,0.217-0.431,0.38-0.562,0.454
	c-3.254-0.896-7.816-1.41-12.554-1.41c-3.479,0-8.615,0.277-13.488,1.578c-0.414-0.249-0.747-0.47-0.986-0.642
	c1.052-1.062,3.717-3.307,4.976-3.697c1.123,0.412,5.487,1.94,8.481,1.94c0.111,0,0.221-0.002,0.329-0.007
	C28.121,43.37,31.872,41.83,32.969,41.34 M32.909,40.286c-0.028,0-0.058,0.005-0.082,0.019c-0.042,0.02-4.238,2.046-8.878,2.23
	c-0.095,0.004-0.191,0.006-0.289,0.006c-3.233,0-8.305-1.942-8.356-1.961c-0.021-0.011-0.044-0.016-0.068-0.016
	c-0.01,0-0.02,0.001-0.03,0.003c-1.8,0.289-6.008,4.111-6.279,4.701c-0.047,0.101-0.021,0.174,0.003,0.219
	c0.293,0.47,1.867,1.384,2.047,1.488C11.007,46.992,11.038,47,11.072,47c0.017,0,0.034-0.002,0.049-0.006
	c4.875-1.35,10.061-1.633,13.556-1.633c4.724,0,9.257,0.516,12.437,1.416c0.044,0.012,0.087,0.021,0.134,0.021
	c0.614,0,1.612-1.134,1.808-1.363c0.062-0.071,0.059-0.181-0.007-0.25c-0.171-0.183-4.213-4.485-6.1-4.896
	C32.936,40.287,32.922,40.286,32.909,40.286L32.909,40.286z"/>
</svg>
