<?xml version="1.0" encoding="utf-8"?>
<!-- Generator: Adobe Illustrator 16.0.0, SVG Export Plug-In . SVG Version: 6.00 Build 0)  -->
<!DOCTYPE svg PUBLIC "-//W3C//DTD SVG 1.1//EN" "http://www.w3.org/Graphics/SVG/1.1/DTD/svg11.dtd">
<svg version="1.1" id="Layer_2" xmlns="http://www.w3.org/2000/svg" xmlns:xlink="http://www.w3.org/1999/xlink" x="0px" y="0px"
	 width="48px" height="48px" viewBox="0 0 48 48" enable-background="new 0 0 48 48" xml:space="preserve">
<path fill="#FFFFFF" d="M23.999,9.97c-5.189,0-9.41,4.22-9.41,9.4c0,3.049,1.45,6.021,3.881,7.92c0,0,0,0.01,0.01,0.01
	c0.359,0.398,1.399,1.63,1.33,2.64c-0.021,0.41,0.34,1,0.709,1.17c0.041,0.021,0.09,0.031,0.141,0.041v0.141
	c-0.18,0.068-0.301,0.25-0.301,0.461c0,0.199,0.121,0.379,0.301,0.459v0.529c-0.18,0.07-0.301,0.25-0.301,0.461
	c0,0.209,0.121,0.391,0.301,0.459v0.562c-0.18,0.079-0.301,0.26-0.301,0.459c0,0.211,0.121,0.392,0.301,0.461v0.42
	c0,0.379,0.3,0.689,0.68,0.689h0.02c0.431,1.061,1.461,1.779,2.641,1.779c1.17,0,2.21-0.721,2.642-1.779h0.021
	c0.38,0,0.68-0.312,0.68-0.689v-0.42c0.181-0.069,0.3-0.25,0.3-0.461c0-0.199-0.119-0.38-0.3-0.459V33.66
	c0.181-0.068,0.3-0.25,0.3-0.459c0-0.211-0.119-0.391-0.3-0.461v-0.53c0.181-0.08,0.3-0.26,0.3-0.459c0-0.211-0.119-0.392-0.3-0.461
	v-0.142h0.101c0.07,0,0.132-0.01,0.199-0.039c0.312-0.131,0.711-0.68,0.592-1.12c-0.199-0.738,0.591-1.931,1.289-2.699
	c1.182-0.92,2.16-2.131,2.83-3.479c0.689-1.399,1.062-2.931,1.062-4.44C33.409,14.189,29.188,9.97,23.999,9.97z M26.339,35.249
	h-0.062c-0.229,0-0.43,0.16-0.488,0.381c-0.2,0.818-0.939,1.397-1.79,1.397c-0.85,0-1.59-0.579-1.79-1.397
	c-0.06-0.221-0.26-0.381-0.489-0.381h-0.061V35.18h4.68V35.249z M26.339,34.18h-4.68V33.7h4.68V34.18z M26.339,32.7h-4.68v-0.449
	h4.68V32.7z M31.449,23.37c-0.602,1.209-1.479,2.299-2.551,3.14c-0.021,0.01-0.062,0.051-0.069,0.069
	c-0.58,0.631-1.88,2.211-1.591,3.569h-0.399c-0.278,0-0.5,0.22-0.5,0.5v0.601h-4.68v-0.601c0-0.28-0.221-0.5-0.5-0.5h-0.25
	c-0.051-0.061-0.09-0.131-0.1-0.149c0.09-1.399-1.11-2.858-1.65-3.431c-0.03-0.041-0.07-0.069-0.12-0.101
	c-2.16-1.72-3.45-4.37-3.45-7.101c0-4.629,3.77-8.399,8.41-8.399c4.64,0,8.41,3.771,8.41,8.399
	C32.409,20.72,32.079,22.1,31.449,23.37z"/>
<path fill="#FFFFFF" d="M24,8.792c-0.275,0-0.499-0.224-0.499-0.5V5.21c0-0.277,0.223-0.502,0.499-0.502
	c0.276,0.002,0.5,0.226,0.5,0.5v3.084C24.5,8.569,24.278,8.792,24,8.792z"/>
<path fill="#FFFFFF" d="M16.418,12.071c-0.195,0.194-0.512,0.195-0.707,0l-2.18-2.179c-0.195-0.196-0.197-0.513-0.002-0.708
	c0.197-0.193,0.514-0.194,0.707,0l2.182,2.181C16.614,11.559,16.614,11.875,16.418,12.071z"/>
<path fill="#FFFFFF" d="M31.721,11.793c-0.193-0.195-0.194-0.512,0.001-0.707l2.179-2.18c0.196-0.195,0.514-0.197,0.709-0.002
	c0.193,0.197,0.193,0.514,0,0.707l-2.182,2.182C32.232,11.989,31.918,11.989,31.721,11.793z"/>
</svg>
