<?xml version="1.0" encoding="utf-8"?>
<!-- Generator: Adobe Illustrator 16.0.0, SVG Export Plug-In . SVG Version: 6.00 Build 0)  -->
<!DOCTYPE svg PUBLIC "-//W3C//DTD SVG 1.1//EN" "http://www.w3.org/Graphics/SVG/1.1/DTD/svg11.dtd">
<svg version="1.1" id="Layer_2" xmlns="http://www.w3.org/2000/svg" xmlns:xlink="http://www.w3.org/1999/xlink" x="0px" y="0px"
	 width="48px" height="48px" viewBox="0 0 48 48" enable-background="new 0 0 48 48" xml:space="preserve">
<g>
	<path fill="#FFFFFF" d="M27.422,25.562h-8.094c-0.275,0-0.5-0.226-0.5-0.5v-7.125c0-0.275,0.225-0.5,0.5-0.5h8.094
		c0.276,0,0.5,0.225,0.5,0.5v7.125C27.922,25.338,27.698,25.562,27.422,25.562z M19.828,24.562h7.094v-6.125h-7.094V24.562z"/>
	<path fill="#FFFFFF" d="M33,24.875h-3.188c-0.276,0-0.5-0.225-0.5-0.5v-5.75c0-0.275,0.224-0.5,0.5-0.5H33
		c0.276,0,0.5,0.225,0.5,0.5v5.75C33.5,24.65,33.276,24.875,33,24.875z M30.312,23.875H32.5v-4.75h-2.188V23.875z"/>
	<path fill="#FFFFFF" d="M37.096,28.443c0.041-0.069,0.062-0.159,0.062-0.239l-0.091-10.209c-0.09-1.43-0.688-2.199-1.83-2.311
		l-17.061-0.6l-0.051-2.32c-0.01-0.219-0.149-0.409-0.369-0.469l-2.28-0.621c-0.069-0.02-0.14-0.029-0.22-0.01l-4,0.71
		c-0.21,0.04-0.381,0.21-0.41,0.431c-0.02,0.209,0.09,0.42,0.29,0.51l2.05,0.939l0.5,20.26c0,0.028,0.01,0.108,0.02,0.131
		c0.031,0.18,0.15,0.33,0.32,0.39l3.37,1.22c0.06,0.021,0.11,0.03,0.171,0.03c0.1,0,0.199-0.03,0.289-0.091
		c0.131-0.09,0.211-0.25,0.211-0.409v-1.989l9.878-0.16c0.052,0,0.102-0.011,0.15-0.029c0.719,1.619,2.34,2.74,4.219,2.74
		c2.562,0,4.631-2.07,4.631-4.631c0-0.779-0.198-1.521-0.541-2.16c0.093-0.051,0.16-0.119,0.212-0.209L37.096,28.443z
		 M17.186,15.565l-0.09,12.779v4.17c-0.02,0.051-0.029,0.109-0.029,0.17l0.01,0.512c-0.01,0.039-0.01,0.08-0.01,0.119v1.761
		l-2.391-0.87l-0.5-20.28c0-0.189-0.12-0.359-0.29-0.439l-0.88-0.41l2.32-0.41l1.81,0.49l0.05,2.391
		C17.186,15.555,17.186,15.555,17.186,15.565z M32.316,35.344c-1.99,0-3.621-1.631-3.621-3.631s1.631-3.619,3.621-3.619
		c2,0,3.629,1.619,3.629,3.619S34.316,35.344,32.316,35.344z M32.316,27.094c-2.551,0-4.621,2.069-4.621,4.619
		c0,0.32,0.029,0.631,0.092,0.922l-9.711,0.158c0.021-0.029,0.021-0.068,0.021-0.107l0.09-16.601l16.99,0.601
		c0.5,0.05,0.83,0.29,0.89,1.34l0.091,10.059l-0.328,0.62C34.977,27.715,33.727,27.094,32.316,27.094z"/>
	<path fill="#FFFFFF" d="M24,32.312c-0.275,0-0.5-0.225-0.5-0.5v-2.75c0-0.275,0.225-0.5,0.5-0.5c0.276,0,0.5,0.225,0.5,0.5v2.75
		C24.5,32.088,24.276,32.312,24,32.312z"/>
	<path fill="#FFFFFF" d="M22.406,32.312c-0.276,0-0.5-0.225-0.5-0.5v-2.75c0-0.275,0.224-0.5,0.5-0.5c0.275,0,0.5,0.225,0.5,0.5
		v2.75C22.906,32.088,22.681,32.312,22.406,32.312z"/>
	<path fill="#FFFFFF" d="M20.875,32.312c-0.275,0-0.5-0.225-0.5-0.5v-2.75c0-0.275,0.225-0.5,0.5-0.5c0.276,0,0.5,0.225,0.5,0.5
		v2.75C21.375,32.088,21.151,32.312,20.875,32.312z"/>
	<path fill="#FFFFFF" d="M19.453,32.312c-0.275,0-0.5-0.225-0.5-0.5v-2.75c0-0.275,0.225-0.5,0.5-0.5c0.277,0,0.5,0.225,0.5,0.5
		v2.75C19.953,32.088,19.73,32.312,19.453,32.312z"/>
	<path fill="#FFFFFF" d="M34.17,30.333c-0.17-0.22-0.48-0.25-0.699-0.079l-1.141,0.93h-0.012l-1.619-1.659
		c-0.199-0.199-0.51-0.199-0.709-0.011c-0.199,0.199-0.199,0.511-0.012,0.709l1.631,1.661c0.021,0.359,0.311,0.641,0.67,0.641
		c0.33,0,0.609-0.239,0.66-0.561l1.16-0.931C34.311,30.863,34.35,30.543,34.17,30.333z"/>
</g>
</svg>
